<?xml version="1.0" encoding="UTF-8"?>
<svg xmlns="http://www.w3.org/2000/svg" xmlns:xlink="http://www.w3.org/1999/xlink" width="854" height="480" viewBox="0 0 854 480">
<defs>
<g>
<g id="glyph-0-0">
<path d="M 3.742188 0 L 2.085938 0 L 2.085938 -0.242188 C 2.199219 -0.253906 2.292969 -0.265625 2.367188 -0.277344 C 2.445312 -0.289062 2.484375 -0.320312 2.484375 -0.375 C 2.484375 -0.394531 2.472656 -0.429688 2.449219 -0.476562 C 2.421875 -0.523438 2.398438 -0.566406 2.375 -0.605469 C 2.3125 -0.699219 2.230469 -0.828125 2.125 -0.988281 C 2.015625 -1.148438 1.886719 -1.339844 1.734375 -1.5625 C 1.605469 -1.402344 1.488281 -1.246094 1.378906 -1.097656 C 1.273438 -0.945312 1.160156 -0.789062 1.042969 -0.617188 C 1.027344 -0.59375 1.007812 -0.5625 0.988281 -0.527344 C 0.972656 -0.492188 0.960938 -0.460938 0.960938 -0.4375 C 0.960938 -0.386719 0.996094 -0.339844 1.066406 -0.304688 C 1.136719 -0.269531 1.242188 -0.246094 1.378906 -0.234375 L 1.378906 0 L 0.0429688 0 L 0.0429688 -0.226562 C 0.210938 -0.277344 0.34375 -0.335938 0.445312 -0.40625 C 0.546875 -0.472656 0.640625 -0.558594 0.726562 -0.664062 C 0.800781 -0.761719 0.90625 -0.894531 1.042969 -1.066406 C 1.179688 -1.238281 1.351562 -1.472656 1.570312 -1.765625 C 1.445312 -1.941406 1.292969 -2.160156 1.113281 -2.417969 C 0.933594 -2.675781 0.785156 -2.886719 0.667969 -3.058594 C 0.605469 -3.152344 0.53125 -3.226562 0.449219 -3.28125 C 0.367188 -3.339844 0.25 -3.367188 0.101562 -3.367188 L 0.101562 -3.609375 L 1.671875 -3.609375 L 1.671875 -3.367188 C 1.59375 -3.367188 1.519531 -3.363281 1.445312 -3.355469 C 1.367188 -3.34375 1.332031 -3.324219 1.332031 -3.289062 C 1.332031 -3.265625 1.335938 -3.242188 1.351562 -3.214844 C 1.367188 -3.1875 1.386719 -3.160156 1.40625 -3.128906 C 1.460938 -3.042969 1.542969 -2.917969 1.65625 -2.742188 C 1.769531 -2.570312 1.894531 -2.386719 2.023438 -2.195312 C 2.109375 -2.3125 2.210938 -2.449219 2.324219 -2.605469 C 2.4375 -2.761719 2.542969 -2.910156 2.636719 -3.050781 C 2.648438 -3.066406 2.65625 -3.089844 2.667969 -3.113281 C 2.675781 -3.140625 2.683594 -3.164062 2.683594 -3.191406 C 2.683594 -3.242188 2.640625 -3.28125 2.554688 -3.3125 C 2.46875 -3.34375 2.390625 -3.363281 2.3125 -3.375 L 2.3125 -3.609375 L 3.648438 -3.609375 L 3.648438 -3.382812 C 3.460938 -3.335938 3.3125 -3.277344 3.207031 -3.210938 C 3.101562 -3.144531 3.015625 -3.066406 2.941406 -2.976562 C 2.859375 -2.878906 2.765625 -2.753906 2.652344 -2.605469 C 2.542969 -2.460938 2.386719 -2.253906 2.1875 -1.992188 C 2.410156 -1.679688 2.589844 -1.421875 2.730469 -1.222656 C 2.867188 -1.023438 3.007812 -0.816406 3.148438 -0.605469 C 3.21875 -0.496094 3.300781 -0.410156 3.386719 -0.351562 C 3.472656 -0.289062 3.589844 -0.25 3.742188 -0.242188 Z "/>
</g>
<g id="glyph-0-1">
</g>
<g id="glyph-0-2">
<path d="M 4.257812 -2.5 L 0.5625 -2.5 L 0.5625 -2.960938 L 4.257812 -2.960938 L 4.257812 -2.5 M 4.257812 -1.140625 L 0.5625 -1.140625 L 0.5625 -1.597656 L 4.257812 -1.597656 Z "/>
</g>
<g id="glyph-0-3">
<path d="M 2.566406 1.203125 C 1.902344 1.117188 1.378906 0.78125 0.996094 0.195312 C 0.617188 -0.394531 0.429688 -1.1875 0.429688 -2.183594 C 0.429688 -3.195312 0.617188 -4 0.996094 -4.589844 C 1.378906 -5.183594 1.902344 -5.523438 2.566406 -5.609375 L 2.566406 -5.304688 C 2.097656 -5.222656 1.742188 -4.921875 1.496094 -4.410156 C 1.253906 -3.898438 1.132812 -3.152344 1.132812 -2.175781 C 1.132812 -1.246094 1.25 -0.523438 1.492188 -0.00390625 C 1.730469 0.511719 2.089844 0.8125 2.566406 0.902344 Z "/>
</g>
<g id="glyph-0-4">
<path d="M 3.683594 -0.0664062 C 3.570312 -0.0234375 3.46875 0.0078125 3.382812 0.0351562 C 3.296875 0.0585938 3.195312 0.0742188 3.085938 0.0742188 C 2.898438 0.0742188 2.746094 0.0273438 2.632812 -0.0585938 C 2.519531 -0.148438 2.445312 -0.28125 2.414062 -0.449219 L 2.390625 -0.449219 C 2.234375 -0.273438 2.0625 -0.140625 1.878906 -0.046875 C 1.699219 0.046875 1.480469 0.0898438 1.222656 0.0898438 C 0.953125 0.0898438 0.730469 0.0078125 0.554688 -0.15625 C 0.378906 -0.324219 0.292969 -0.539062 0.292969 -0.808594 C 0.292969 -0.949219 0.3125 -1.074219 0.351562 -1.183594 C 0.390625 -1.292969 0.449219 -1.390625 0.527344 -1.480469 C 0.589844 -1.554688 0.667969 -1.617188 0.769531 -1.675781 C 0.867188 -1.734375 0.964844 -1.777344 1.050781 -1.8125 C 1.160156 -1.855469 1.382812 -1.929688 1.71875 -2.042969 C 2.054688 -2.15625 2.28125 -2.242188 2.398438 -2.308594 L 2.398438 -2.667969 C 2.398438 -2.703125 2.390625 -2.761719 2.378906 -2.851562 C 2.363281 -2.941406 2.335938 -3.027344 2.292969 -3.109375 C 2.242188 -3.199219 2.175781 -3.277344 2.085938 -3.34375 C 1.996094 -3.414062 1.871094 -3.445312 1.707031 -3.445312 C 1.59375 -3.445312 1.488281 -3.425781 1.394531 -3.390625 C 1.296875 -3.351562 1.230469 -3.3125 1.191406 -3.269531 C 1.191406 -3.222656 1.203125 -3.148438 1.226562 -3.054688 C 1.25 -2.957031 1.257812 -2.871094 1.257812 -2.789062 C 1.257812 -2.703125 1.222656 -2.625 1.144531 -2.554688 C 1.066406 -2.484375 0.960938 -2.449219 0.824219 -2.449219 C 0.703125 -2.449219 0.613281 -2.492188 0.554688 -2.578125 C 0.496094 -2.667969 0.46875 -2.761719 0.46875 -2.871094 C 0.46875 -2.984375 0.507812 -3.089844 0.585938 -3.195312 C 0.667969 -3.296875 0.769531 -3.386719 0.898438 -3.46875 C 1.007812 -3.535156 1.140625 -3.59375 1.296875 -3.640625 C 1.453125 -3.691406 1.605469 -3.714844 1.753906 -3.714844 C 1.960938 -3.714844 2.136719 -3.699219 2.289062 -3.671875 C 2.441406 -3.644531 2.582031 -3.582031 2.707031 -3.488281 C 2.832031 -3.398438 2.925781 -3.277344 2.988281 -3.121094 C 3.054688 -2.96875 3.085938 -2.765625 3.085938 -2.523438 C 3.085938 -2.175781 3.082031 -1.863281 3.078125 -1.59375 C 3.070312 -1.324219 3.066406 -1.03125 3.066406 -0.710938 C 3.066406 -0.617188 3.082031 -0.539062 3.113281 -0.484375 C 3.148438 -0.425781 3.199219 -0.378906 3.265625 -0.339844 C 3.304688 -0.320312 3.359375 -0.304688 3.441406 -0.304688 C 3.519531 -0.300781 3.601562 -0.300781 3.683594 -0.300781 L 3.683594 -0.0664062 M 2.40625 -2 C 2.199219 -1.9375 2.015625 -1.878906 1.859375 -1.820312 C 1.703125 -1.761719 1.558594 -1.6875 1.425781 -1.597656 C 1.300781 -1.515625 1.207031 -1.417969 1.136719 -1.304688 C 1.0625 -1.191406 1.027344 -1.054688 1.027344 -0.898438 C 1.027344 -0.695312 1.082031 -0.546875 1.1875 -0.449219 C 1.292969 -0.355469 1.429688 -0.308594 1.59375 -0.308594 C 1.765625 -0.308594 1.917969 -0.351562 2.050781 -0.433594 C 2.183594 -0.519531 2.292969 -0.617188 2.382812 -0.734375 Z "/>
</g>
<g id="glyph-0-5">
<path d="M 3.296875 -1.792969 L 0.539062 -1.792969 L 0.539062 -2.199219 C 0.632812 -2.359375 0.777344 -2.515625 0.972656 -2.667969 C 1.167969 -2.824219 1.40625 -2.988281 1.679688 -3.160156 C 1.765625 -3.214844 1.859375 -3.285156 1.964844 -3.375 C 2.070312 -3.464844 2.148438 -3.546875 2.203125 -3.621094 C 2.277344 -3.71875 2.332031 -3.820312 2.371094 -3.925781 C 2.410156 -4.035156 2.429688 -4.167969 2.429688 -4.328125 C 2.429688 -4.5625 2.367188 -4.742188 2.25 -4.863281 C 2.128906 -4.984375 1.972656 -5.046875 1.777344 -5.046875 C 1.636719 -5.046875 1.519531 -5.023438 1.417969 -4.976562 C 1.320312 -4.925781 1.25 -4.871094 1.203125 -4.808594 C 1.21875 -4.75 1.234375 -4.683594 1.253906 -4.609375 C 1.273438 -4.535156 1.28125 -4.457031 1.28125 -4.375 C 1.28125 -4.300781 1.25 -4.234375 1.179688 -4.179688 C 1.113281 -4.121094 1.015625 -4.09375 0.886719 -4.09375 C 0.769531 -4.09375 0.683594 -4.132812 0.636719 -4.210938 C 0.585938 -4.285156 0.558594 -4.371094 0.558594 -4.46875 C 0.558594 -4.691406 0.6875 -4.886719 0.941406 -5.0625 C 1.199219 -5.234375 1.492188 -5.320312 1.832031 -5.320312 C 2.214844 -5.320312 2.527344 -5.230469 2.769531 -5.042969 C 3.011719 -4.859375 3.132812 -4.613281 3.132812 -4.304688 C 3.132812 -4.121094 3.105469 -3.960938 3.046875 -3.824219 C 2.992188 -3.691406 2.921875 -3.574219 2.832031 -3.480469 C 2.734375 -3.378906 2.628906 -3.292969 2.511719 -3.21875 C 2.390625 -3.144531 2.269531 -3.078125 2.140625 -3.015625 C 1.984375 -2.941406 1.796875 -2.839844 1.574219 -2.714844 C 1.347656 -2.585938 1.164062 -2.457031 1.023438 -2.320312 L 3.296875 -2.320312 Z "/>
</g>
<g id="glyph-0-6">
<path d="M 4.296875 -1.820312 L 2.644531 -1.820312 L 2.644531 -0.167969 L 2.179688 -0.167969 L 2.179688 -1.820312 L 0.527344 -1.820312 L 0.527344 -2.277344 L 2.179688 -2.277344 L 2.179688 -3.929688 L 2.644531 -3.929688 L 2.644531 -2.277344 L 4.296875 -2.277344 Z "/>
</g>
<g id="glyph-0-7">
<path d="M 1.933594 0.09375 C 1.410156 0.09375 1.003906 -0.078125 0.707031 -0.425781 C 0.410156 -0.769531 0.265625 -1.238281 0.265625 -1.820312 C 0.265625 -2.074219 0.304688 -2.3125 0.382812 -2.53125 C 0.460938 -2.753906 0.578125 -2.953125 0.730469 -3.132812 C 0.871094 -3.308594 1.054688 -3.449219 1.269531 -3.554688 C 1.488281 -3.660156 1.726562 -3.714844 1.980469 -3.714844 C 2.335938 -3.714844 2.625 -3.628906 2.84375 -3.457031 C 3.066406 -3.289062 3.179688 -3.058594 3.179688 -2.765625 C 3.179688 -2.644531 3.148438 -2.535156 3.089844 -2.441406 C 3.03125 -2.347656 2.9375 -2.300781 2.800781 -2.300781 C 2.65625 -2.300781 2.546875 -2.335938 2.464844 -2.410156 C 2.386719 -2.480469 2.347656 -2.5625 2.347656 -2.652344 C 2.347656 -2.761719 2.363281 -2.875 2.390625 -2.992188 C 2.421875 -3.105469 2.4375 -3.191406 2.441406 -3.246094 C 2.398438 -3.320312 2.332031 -3.371094 2.246094 -3.398438 C 2.160156 -3.421875 2.066406 -3.433594 1.96875 -3.433594 C 1.851562 -3.433594 1.738281 -3.410156 1.632812 -3.359375 C 1.527344 -3.308594 1.425781 -3.21875 1.324219 -3.082031 C 1.234375 -2.960938 1.160156 -2.796875 1.105469 -2.589844 C 1.050781 -2.382812 1.023438 -2.132812 1.023438 -1.84375 C 1.023438 -1.390625 1.121094 -1.019531 1.324219 -0.734375 C 1.523438 -0.449219 1.789062 -0.304688 2.113281 -0.304688 C 2.351562 -0.304688 2.550781 -0.363281 2.710938 -0.476562 C 2.867188 -0.59375 3.015625 -0.765625 3.152344 -0.996094 L 3.386719 -0.84375 C 3.226562 -0.554688 3.015625 -0.324219 2.75 -0.15625 C 2.488281 0.0117188 2.214844 0.09375 1.933594 0.09375 Z "/>
</g>
<g id="glyph-0-8">
<path d="M 2.492188 -1.699219 L 0.3125 -1.699219 L 0.3125 -2.277344 L 2.492188 -2.277344 Z "/>
</g>
<g id="glyph-0-9">
<path d="M 3.929688 -1.808594 C 3.929688 -1.265625 3.757812 -0.8125 3.417969 -0.441406 C 3.074219 -0.0742188 2.679688 0.109375 2.226562 0.109375 C 2.027344 0.109375 1.835938 0.078125 1.640625 0.0195312 C 1.449219 -0.0429688 1.269531 -0.125 1.101562 -0.226562 L 0.832031 0.195312 L 0.605469 0.144531 C 0.617188 -0.0390625 0.625 -0.253906 0.628906 -0.507812 C 0.632812 -0.761719 0.636719 -1.007812 0.636719 -1.246094 L 0.636719 -4.824219 C 0.636719 -4.90625 0.617188 -4.988281 0.582031 -5.070312 C 0.542969 -5.15625 0.496094 -5.214844 0.4375 -5.25 C 0.390625 -5.28125 0.3125 -5.308594 0.203125 -5.324219 C 0.09375 -5.339844 0.0078125 -5.347656 -0.0585938 -5.355469 L -0.0585938 -5.589844 L 1.265625 -5.667969 L 1.320312 -5.613281 L 1.320312 -3.234375 L 1.34375 -3.226562 C 1.496094 -3.386719 1.660156 -3.507812 1.839844 -3.589844 C 2.019531 -3.667969 2.195312 -3.710938 2.371094 -3.710938 C 2.8125 -3.710938 3.183594 -3.535156 3.484375 -3.183594 C 3.78125 -2.832031 3.929688 -2.375 3.929688 -1.808594 M 3.164062 -1.785156 C 3.164062 -1.964844 3.144531 -2.148438 3.105469 -2.335938 C 3.066406 -2.523438 3.003906 -2.6875 2.921875 -2.828125 C 2.839844 -2.96875 2.730469 -3.082031 2.597656 -3.171875 C 2.460938 -3.257812 2.300781 -3.304688 2.113281 -3.304688 C 1.941406 -3.304688 1.792969 -3.269531 1.664062 -3.203125 C 1.535156 -3.136719 1.421875 -3.042969 1.320312 -2.929688 L 1.320312 -0.828125 C 1.332031 -0.769531 1.363281 -0.699219 1.40625 -0.621094 C 1.445312 -0.542969 1.503906 -0.46875 1.578125 -0.398438 C 1.652344 -0.332031 1.734375 -0.273438 1.828125 -0.234375 C 1.921875 -0.191406 2.035156 -0.167969 2.167969 -0.167969 C 2.464844 -0.167969 2.707031 -0.3125 2.890625 -0.601562 C 3.074219 -0.886719 3.164062 -1.28125 3.164062 -1.785156 Z "/>
</g>
<g id="glyph-0-10">
<path d="M 2.382812 -2.183594 C 2.382812 -1.1875 2.195312 -0.394531 1.816406 0.195312 C 1.433594 0.78125 0.910156 1.117188 0.246094 1.203125 L 0.246094 0.902344 C 0.722656 0.8125 1.082031 0.511719 1.320312 -0.00390625 C 1.5625 -0.523438 1.679688 -1.246094 1.679688 -2.175781 C 1.679688 -3.152344 1.558594 -3.898438 1.316406 -4.410156 C 1.070312 -4.921875 0.714844 -5.222656 0.246094 -5.304688 L 0.246094 -5.609375 C 0.910156 -5.523438 1.433594 -5.183594 1.816406 -4.589844 C 2.195312 -4 2.382812 -3.195312 2.382812 -2.183594 Z "/>
</g>
<g id="glyph-0-11">
<path d="M 3.1875 -5.578125 L 0.65625 1.554688 L 0.179688 1.554688 L 2.699219 -5.578125 Z "/>
</g>
<g id="glyph-0-12">
<path d="M 3.835938 0 L 0.402344 0 L 0.402344 -0.5 C 0.46875 -0.578125 0.558594 -0.660156 0.675781 -0.753906 C 0.792969 -0.847656 0.933594 -0.949219 1.09375 -1.0625 C 1.191406 -1.125 1.308594 -1.199219 1.445312 -1.277344 C 1.582031 -1.355469 1.738281 -1.441406 1.910156 -1.53125 C 2.105469 -1.636719 2.253906 -1.726562 2.355469 -1.804688 C 2.460938 -1.882812 2.554688 -1.976562 2.640625 -2.09375 C 2.695312 -2.167969 2.742188 -2.261719 2.777344 -2.375 C 2.808594 -2.488281 2.828125 -2.652344 2.828125 -2.859375 C 2.828125 -3.164062 2.746094 -3.390625 2.582031 -3.53125 C 2.417969 -3.675781 2.207031 -3.746094 1.953125 -3.746094 C 1.792969 -3.746094 1.644531 -3.714844 1.5 -3.652344 C 1.359375 -3.589844 1.253906 -3.503906 1.183594 -3.394531 C 1.199219 -3.316406 1.222656 -3.222656 1.246094 -3.117188 C 1.273438 -3.007812 1.285156 -2.902344 1.285156 -2.800781 C 1.285156 -2.707031 1.246094 -2.625 1.171875 -2.554688 C 1.09375 -2.480469 0.980469 -2.445312 0.828125 -2.445312 C 0.707031 -2.445312 0.613281 -2.488281 0.546875 -2.574219 C 0.480469 -2.65625 0.445312 -2.769531 0.445312 -2.910156 C 0.445312 -3.042969 0.484375 -3.175781 0.554688 -3.308594 C 0.628906 -3.441406 0.734375 -3.5625 0.871094 -3.675781 C 1.003906 -3.785156 1.171875 -3.875 1.371094 -3.945312 C 1.566406 -4.011719 1.78125 -4.046875 2.011719 -4.046875 C 2.511719 -4.046875 2.910156 -3.933594 3.203125 -3.710938 C 3.496094 -3.488281 3.644531 -3.191406 3.644531 -2.816406 C 3.644531 -2.640625 3.617188 -2.476562 3.566406 -2.332031 C 3.511719 -2.183594 3.429688 -2.054688 3.3125 -1.941406 C 3.179688 -1.820312 3.03125 -1.710938 2.855469 -1.625 C 2.683594 -1.535156 2.417969 -1.410156 2.0625 -1.25 C 1.847656 -1.15625 1.652344 -1.058594 1.46875 -0.953125 C 1.285156 -0.851562 1.136719 -0.75 1.019531 -0.652344 L 3.835938 -0.652344 Z "/>
</g>
</g>
</defs>
<g fill="rgb(51.372549%, 75.686275%, 40.392157%)" fill-opacity="1">
<use xlink:href="#glyph-0-0" x="30" y="26.87793"/>
<use xlink:href="#glyph-0-1" x="34" y="26.87793"/>
<use xlink:href="#glyph-0-2" x="36" y="26.87793"/>
<use xlink:href="#glyph-0-1" x="41" y="26.87793"/>
<use xlink:href="#glyph-0-3" x="43" y="26.87793"/>
<use xlink:href="#glyph-0-4" x="46" y="26.87793"/>
<use xlink:href="#glyph-0-5" x="50" y="26.87793"/>
<use xlink:href="#glyph-0-1" x="54" y="26.87793"/>
<use xlink:href="#glyph-0-6" x="56" y="26.87793"/>
<use xlink:href="#glyph-0-1" x="61" y="26.87793"/>
<use xlink:href="#glyph-0-7" x="63" y="26.87793"/>
<use xlink:href="#glyph-0-5" x="66" y="26.87793"/>
<use xlink:href="#glyph-0-1" x="70" y="26.87793"/>
<use xlink:href="#glyph-0-8" x="72" y="26.87793"/>
<use xlink:href="#glyph-0-1" x="75" y="26.87793"/>
<use xlink:href="#glyph-0-9" x="77" y="26.87793"/>
<use xlink:href="#glyph-0-5" x="81" y="26.87793"/>
<use xlink:href="#glyph-0-10" x="85" y="26.87793"/>
<use xlink:href="#glyph-0-1" x="88" y="26.87793"/>
<use xlink:href="#glyph-0-11" x="90" y="26.87793"/>
<use xlink:href="#glyph-0-1" x="94" y="26.87793"/>
<use xlink:href="#glyph-0-3" x="96" y="26.87793"/>
<use xlink:href="#glyph-0-12" x="99" y="26.87793"/>
<use xlink:href="#glyph-0-4" x="103" y="26.87793"/>
<use xlink:href="#glyph-0-10" x="107" y="26.87793"/>
</g>
</svg>
