<?xml version="1.0" encoding="UTF-8"?>
<svg xmlns="http://www.w3.org/2000/svg" xmlns:xlink="http://www.w3.org/1999/xlink" width="854" height="480" viewBox="0 0 854 480">
<defs>
<g>
<g id="glyph-0-0">
<path d="M 3 -0.0546875 C 2.90625 -0.0195312 2.824219 0.0078125 2.753906 0.0273438 C 2.683594 0.0507812 2.605469 0.0585938 2.515625 0.0585938 C 2.359375 0.0585938 2.234375 0.0234375 2.144531 -0.0507812 C 2.050781 -0.121094 1.992188 -0.226562 1.964844 -0.367188 L 1.949219 -0.367188 C 1.820312 -0.222656 1.679688 -0.113281 1.53125 -0.0390625 C 1.382812 0.0351562 1.207031 0.0742188 0.996094 0.0742188 C 0.777344 0.0742188 0.59375 0.0078125 0.453125 -0.128906 C 0.308594 -0.261719 0.238281 -0.441406 0.238281 -0.660156 C 0.238281 -0.773438 0.253906 -0.875 0.285156 -0.964844 C 0.316406 -1.054688 0.367188 -1.132812 0.429688 -1.207031 C 0.480469 -1.265625 0.546875 -1.316406 0.625 -1.363281 C 0.707031 -1.410156 0.785156 -1.449219 0.855469 -1.476562 C 0.945312 -1.511719 1.128906 -1.574219 1.402344 -1.664062 C 1.675781 -1.757812 1.859375 -1.828125 1.953125 -1.878906 L 1.953125 -2.175781 C 1.953125 -2.199219 1.949219 -2.25 1.9375 -2.324219 C 1.925781 -2.398438 1.902344 -2.46875 1.867188 -2.53125 C 1.828125 -2.605469 1.773438 -2.671875 1.699219 -2.726562 C 1.625 -2.78125 1.523438 -2.808594 1.390625 -2.808594 C 1.300781 -2.808594 1.214844 -2.792969 1.136719 -2.761719 C 1.058594 -2.730469 1 -2.699219 0.96875 -2.664062 C 0.96875 -2.625 0.980469 -2.566406 1 -2.488281 C 1.015625 -2.410156 1.027344 -2.339844 1.027344 -2.273438 C 1.027344 -2.203125 0.996094 -2.140625 0.933594 -2.082031 C 0.871094 -2.023438 0.78125 -1.996094 0.671875 -1.996094 C 0.570312 -1.996094 0.5 -2.03125 0.453125 -2.101562 C 0.40625 -2.171875 0.382812 -2.25 0.382812 -2.339844 C 0.382812 -2.429688 0.414062 -2.519531 0.480469 -2.601562 C 0.542969 -2.683594 0.628906 -2.761719 0.730469 -2.824219 C 0.820312 -2.882812 0.929688 -2.929688 1.054688 -2.96875 C 1.183594 -3.007812 1.308594 -3.027344 1.429688 -3.027344 C 1.597656 -3.027344 1.742188 -3.015625 1.867188 -2.992188 C 1.992188 -2.96875 2.105469 -2.917969 2.203125 -2.84375 C 2.304688 -2.769531 2.382812 -2.671875 2.4375 -2.542969 C 2.488281 -2.417969 2.515625 -2.253906 2.515625 -2.054688 C 2.515625 -1.769531 2.511719 -1.519531 2.507812 -1.300781 C 2.5 -1.078125 2.496094 -0.839844 2.496094 -0.578125 C 2.496094 -0.5 2.511719 -0.441406 2.539062 -0.394531 C 2.566406 -0.347656 2.605469 -0.308594 2.660156 -0.277344 C 2.691406 -0.257812 2.738281 -0.25 2.804688 -0.246094 C 2.867188 -0.246094 2.933594 -0.246094 3 -0.246094 L 3 -0.0546875 M 1.960938 -1.628906 C 1.792969 -1.578125 1.644531 -1.53125 1.515625 -1.484375 C 1.386719 -1.433594 1.269531 -1.375 1.160156 -1.304688 C 1.0625 -1.234375 0.984375 -1.15625 0.925781 -1.0625 C 0.867188 -0.96875 0.839844 -0.859375 0.839844 -0.730469 C 0.839844 -0.566406 0.882812 -0.445312 0.96875 -0.367188 C 1.054688 -0.289062 1.164062 -0.25 1.296875 -0.25 C 1.4375 -0.25 1.5625 -0.285156 1.671875 -0.355469 C 1.777344 -0.421875 1.867188 -0.503906 1.941406 -0.597656 Z "/>
</g>
<g id="glyph-0-1">
<path d="M 2.03125 -1.382812 L 0.253906 -1.382812 L 0.253906 -1.855469 L 2.03125 -1.855469 Z "/>
</g>
<g id="glyph-0-2">
<path d="M 3.050781 0 L 1.699219 0 L 1.699219 -0.195312 C 1.789062 -0.207031 1.867188 -0.21875 1.929688 -0.226562 C 1.992188 -0.238281 2.023438 -0.261719 2.023438 -0.304688 C 2.023438 -0.320312 2.015625 -0.351562 1.996094 -0.386719 C 1.972656 -0.425781 1.953125 -0.460938 1.933594 -0.492188 C 1.882812 -0.570312 1.816406 -0.675781 1.730469 -0.804688 C 1.644531 -0.933594 1.535156 -1.089844 1.410156 -1.273438 C 1.308594 -1.140625 1.210938 -1.015625 1.125 -0.894531 C 1.035156 -0.769531 0.945312 -0.640625 0.851562 -0.503906 C 0.835938 -0.484375 0.820312 -0.460938 0.804688 -0.429688 C 0.792969 -0.398438 0.785156 -0.375 0.785156 -0.359375 C 0.785156 -0.3125 0.8125 -0.277344 0.867188 -0.25 C 0.925781 -0.21875 1.011719 -0.199219 1.125 -0.191406 L 1.125 0 L 0.0351562 0 L 0.0351562 -0.183594 C 0.171875 -0.226562 0.28125 -0.273438 0.363281 -0.328125 C 0.445312 -0.386719 0.519531 -0.457031 0.589844 -0.539062 C 0.652344 -0.621094 0.738281 -0.730469 0.847656 -0.871094 C 0.960938 -1.007812 1.101562 -1.199219 1.277344 -1.4375 C 1.175781 -1.582031 1.050781 -1.761719 0.90625 -1.96875 C 0.761719 -2.179688 0.640625 -2.351562 0.542969 -2.492188 C 0.492188 -2.566406 0.433594 -2.628906 0.367188 -2.675781 C 0.300781 -2.722656 0.203125 -2.746094 0.0820312 -2.746094 L 0.0820312 -2.941406 L 1.363281 -2.941406 L 1.363281 -2.746094 C 1.300781 -2.746094 1.238281 -2.742188 1.175781 -2.734375 C 1.113281 -2.726562 1.082031 -2.707031 1.082031 -2.679688 C 1.082031 -2.660156 1.089844 -2.640625 1.101562 -2.621094 C 1.113281 -2.597656 1.128906 -2.574219 1.144531 -2.546875 C 1.191406 -2.480469 1.257812 -2.375 1.351562 -2.234375 C 1.441406 -2.09375 1.542969 -1.945312 1.648438 -1.789062 C 1.71875 -1.882812 1.800781 -1.996094 1.894531 -2.121094 C 1.984375 -2.25 2.070312 -2.371094 2.148438 -2.484375 C 2.15625 -2.5 2.164062 -2.515625 2.171875 -2.539062 C 2.179688 -2.558594 2.183594 -2.578125 2.183594 -2.597656 C 2.183594 -2.640625 2.152344 -2.675781 2.082031 -2.699219 C 2.011719 -2.722656 1.949219 -2.742188 1.886719 -2.75 L 1.886719 -2.941406 L 2.972656 -2.941406 L 2.972656 -2.757812 C 2.820312 -2.71875 2.699219 -2.671875 2.613281 -2.617188 C 2.527344 -2.558594 2.457031 -2.496094 2.394531 -2.425781 C 2.332031 -2.34375 2.253906 -2.242188 2.160156 -2.125 C 2.070312 -2.003906 1.945312 -1.835938 1.78125 -1.621094 C 1.960938 -1.367188 2.109375 -1.160156 2.222656 -0.996094 C 2.335938 -0.832031 2.449219 -0.664062 2.566406 -0.492188 C 2.625 -0.40625 2.6875 -0.335938 2.757812 -0.285156 C 2.828125 -0.234375 2.925781 -0.203125 3.050781 -0.195312 Z "/>
</g>
</g>
</defs>
<g fill="rgb(34.509804%, 76.862745%, 86.666667%)" fill-opacity="1">
<use xlink:href="#glyph-0-0" x="30" y="25.603516"/>
<use xlink:href="#glyph-0-1" x="33" y="25.603516"/>
<use xlink:href="#glyph-0-2" x="35" y="25.603516"/>
</g>
</svg>
