<?xml version="1.0" encoding="UTF-8"?>
<svg xmlns="http://www.w3.org/2000/svg" xmlns:xlink="http://www.w3.org/1999/xlink" width="854" height="480" viewBox="0 0 854 480">
<defs>
<g>
<g id="glyph-0-0">
<path d="M 2.003906 0.0976562 C 1.464844 0.0976562 1.039062 -0.0820312 0.734375 -0.441406 C 0.425781 -0.800781 0.273438 -1.28125 0.273438 -1.886719 C 0.273438 -2.152344 0.316406 -2.398438 0.398438 -2.625 C 0.480469 -2.855469 0.597656 -3.0625 0.753906 -3.25 C 0.90625 -3.429688 1.09375 -3.574219 1.316406 -3.683594 C 1.542969 -3.796875 1.789062 -3.851562 2.054688 -3.851562 C 2.421875 -3.851562 2.71875 -3.761719 2.949219 -3.585938 C 3.179688 -3.410156 3.296875 -3.171875 3.296875 -2.867188 C 3.296875 -2.742188 3.265625 -2.628906 3.207031 -2.53125 C 3.144531 -2.433594 3.042969 -2.386719 2.90625 -2.386719 C 2.753906 -2.386719 2.640625 -2.421875 2.558594 -2.5 C 2.476562 -2.574219 2.433594 -2.660156 2.433594 -2.753906 C 2.433594 -2.867188 2.449219 -2.980469 2.480469 -3.101562 C 2.511719 -3.222656 2.527344 -3.308594 2.53125 -3.367188 C 2.488281 -3.445312 2.421875 -3.496094 2.332031 -3.523438 C 2.242188 -3.550781 2.144531 -3.5625 2.039062 -3.5625 C 1.917969 -3.5625 1.804688 -3.535156 1.695312 -3.484375 C 1.585938 -3.433594 1.476562 -3.335938 1.375 -3.199219 C 1.28125 -3.070312 1.203125 -2.898438 1.148438 -2.683594 C 1.089844 -2.46875 1.058594 -2.210938 1.058594 -1.914062 C 1.058594 -1.441406 1.164062 -1.058594 1.371094 -0.761719 C 1.582031 -0.464844 1.855469 -0.316406 2.191406 -0.316406 C 2.4375 -0.316406 2.644531 -0.375 2.808594 -0.496094 C 2.976562 -0.613281 3.128906 -0.792969 3.269531 -1.03125 L 3.511719 -0.875 C 3.34375 -0.574219 3.125 -0.339844 2.851562 -0.164062 C 2.578125 0.0117188 2.296875 0.0976562 2.003906 0.0976562 Z "/>
</g>
<g id="glyph-0-1">
<path d="M 3.417969 -1.859375 L 0.558594 -1.859375 L 0.558594 -2.28125 C 0.65625 -2.445312 0.808594 -2.609375 1.011719 -2.769531 C 1.210938 -2.929688 1.457031 -3.097656 1.742188 -3.277344 C 1.832031 -3.332031 1.929688 -3.40625 2.039062 -3.5 C 2.144531 -3.59375 2.226562 -3.675781 2.285156 -3.753906 C 2.363281 -3.855469 2.417969 -3.960938 2.457031 -4.074219 C 2.5 -4.183594 2.519531 -4.320312 2.519531 -4.488281 C 2.519531 -4.730469 2.457031 -4.917969 2.332031 -5.042969 C 2.207031 -5.167969 2.042969 -5.234375 1.84375 -5.234375 C 1.699219 -5.234375 1.574219 -5.207031 1.472656 -5.160156 C 1.367188 -5.109375 1.296875 -5.050781 1.25 -4.984375 C 1.265625 -4.925781 1.28125 -4.855469 1.300781 -4.777344 C 1.320312 -4.703125 1.328125 -4.621094 1.328125 -4.539062 C 1.328125 -4.460938 1.292969 -4.390625 1.226562 -4.332031 C 1.15625 -4.273438 1.054688 -4.246094 0.917969 -4.246094 C 0.796875 -4.246094 0.710938 -4.285156 0.660156 -4.367188 C 0.605469 -4.445312 0.582031 -4.535156 0.582031 -4.632812 C 0.582031 -4.863281 0.714844 -5.070312 0.976562 -5.25 C 1.242188 -5.429688 1.550781 -5.519531 1.898438 -5.519531 C 2.296875 -5.519531 2.621094 -5.421875 2.871094 -5.230469 C 3.121094 -5.039062 3.246094 -4.785156 3.246094 -4.460938 C 3.246094 -4.273438 3.21875 -4.105469 3.160156 -3.964844 C 3.105469 -3.824219 3.027344 -3.707031 2.933594 -3.609375 C 2.835938 -3.503906 2.726562 -3.414062 2.601562 -3.339844 C 2.480469 -3.261719 2.351562 -3.191406 2.222656 -3.128906 C 2.058594 -3.050781 1.863281 -2.945312 1.632812 -2.8125 C 1.398438 -2.683594 1.207031 -2.546875 1.058594 -2.40625 L 3.417969 -2.40625 Z "/>
</g>
<g id="glyph-0-2">
</g>
<g id="glyph-0-3">
<path d="M 4.417969 -2.59375 L 0.585938 -2.59375 L 0.585938 -3.070312 L 4.417969 -3.070312 L 4.417969 -2.59375 M 4.417969 -1.179688 L 0.585938 -1.179688 L 0.585938 -1.65625 L 4.417969 -1.65625 Z "/>
</g>
<g id="glyph-0-4">
<path d="M 4.347656 0 L 2.507812 0 L 2.507812 -0.25 C 2.566406 -0.253906 2.628906 -0.261719 2.699219 -0.265625 C 2.769531 -0.269531 2.828125 -0.28125 2.875 -0.296875 C 2.945312 -0.320312 3 -0.359375 3.03125 -0.414062 C 3.066406 -0.472656 3.082031 -0.546875 3.082031 -0.636719 L 3.082031 -2.5625 C 3.082031 -2.828125 3.019531 -3.035156 2.894531 -3.179688 C 2.769531 -3.324219 2.617188 -3.394531 2.4375 -3.394531 C 2.304688 -3.394531 2.183594 -3.375 2.070312 -3.332031 C 1.957031 -3.289062 1.855469 -3.238281 1.765625 -3.179688 C 1.679688 -3.117188 1.613281 -3.050781 1.570312 -2.988281 C 1.523438 -2.925781 1.488281 -2.871094 1.460938 -2.828125 L 1.460938 -0.675781 C 1.460938 -0.589844 1.480469 -0.519531 1.511719 -0.464844 C 1.546875 -0.40625 1.601562 -0.363281 1.671875 -0.335938 C 1.726562 -0.308594 1.785156 -0.289062 1.84375 -0.277344 C 1.902344 -0.265625 1.96875 -0.253906 2.039062 -0.25 L 2.039062 0 L 0.203125 0 L 0.203125 -0.25 C 0.261719 -0.253906 0.324219 -0.261719 0.386719 -0.269531 C 0.449219 -0.273438 0.5 -0.285156 0.542969 -0.296875 C 0.613281 -0.320312 0.667969 -0.359375 0.703125 -0.414062 C 0.738281 -0.472656 0.753906 -0.546875 0.753906 -0.636719 L 0.753906 -5 C 0.753906 -5.085938 0.734375 -5.171875 0.695312 -5.257812 C 0.65625 -5.34375 0.605469 -5.410156 0.542969 -5.453125 C 0.496094 -5.484375 0.417969 -5.507812 0.300781 -5.523438 C 0.1875 -5.539062 0.09375 -5.546875 0.0234375 -5.550781 L 0.0234375 -5.796875 L 1.410156 -5.878906 L 1.460938 -5.820312 L 1.460938 -3.207031 L 1.476562 -3.207031 C 1.5625 -3.292969 1.636719 -3.367188 1.707031 -3.429688 C 1.773438 -3.496094 1.863281 -3.5625 1.976562 -3.632812 C 2.070312 -3.695312 2.183594 -3.746094 2.316406 -3.785156 C 2.445312 -3.828125 2.59375 -3.847656 2.753906 -3.847656 C 3.089844 -3.847656 3.347656 -3.742188 3.527344 -3.53125 C 3.707031 -3.320312 3.796875 -3.015625 3.796875 -2.617188 L 3.796875 -0.667969 C 3.796875 -0.578125 3.8125 -0.507812 3.84375 -0.453125 C 3.878906 -0.398438 3.929688 -0.355469 4.003906 -0.328125 C 4.0625 -0.304688 4.117188 -0.285156 4.164062 -0.273438 C 4.210938 -0.265625 4.273438 -0.253906 4.347656 -0.25 Z "/>
</g>
<g id="glyph-0-5">
<path d="M 4.453125 -1.886719 L 2.742188 -1.886719 L 2.742188 -0.175781 L 2.257812 -0.175781 L 2.257812 -1.886719 L 0.546875 -1.886719 L 0.546875 -2.363281 L 2.257812 -2.363281 L 2.257812 -4.074219 L 2.742188 -4.074219 L 2.742188 -2.363281 L 4.453125 -2.363281 Z "/>
</g>
<g id="glyph-0-6">
<path d="M 3.882812 0 L 2.164062 0 L 2.164062 -0.25 C 2.277344 -0.261719 2.375 -0.277344 2.457031 -0.289062 C 2.535156 -0.300781 2.574219 -0.335938 2.574219 -0.386719 C 2.574219 -0.410156 2.5625 -0.445312 2.539062 -0.492188 C 2.511719 -0.542969 2.488281 -0.585938 2.460938 -0.625 C 2.398438 -0.726562 2.3125 -0.859375 2.203125 -1.023438 C 2.089844 -1.191406 1.957031 -1.386719 1.796875 -1.617188 C 1.664062 -1.453125 1.542969 -1.292969 1.429688 -1.136719 C 1.320312 -0.980469 1.203125 -0.816406 1.082031 -0.640625 C 1.0625 -0.617188 1.046875 -0.585938 1.027344 -0.546875 C 1.007812 -0.507812 0.996094 -0.476562 0.996094 -0.457031 C 0.996094 -0.398438 1.035156 -0.355469 1.105469 -0.316406 C 1.179688 -0.28125 1.285156 -0.253906 1.433594 -0.242188 L 1.433594 0 L 0.046875 0 L 0.046875 -0.234375 C 0.21875 -0.285156 0.355469 -0.347656 0.460938 -0.417969 C 0.566406 -0.492188 0.664062 -0.582031 0.75 -0.6875 C 0.832031 -0.789062 0.941406 -0.929688 1.082031 -1.105469 C 1.222656 -1.285156 1.402344 -1.527344 1.625 -1.832031 C 1.496094 -2.015625 1.339844 -2.242188 1.152344 -2.507812 C 0.96875 -2.773438 0.8125 -2.996094 0.691406 -3.171875 C 0.625 -3.265625 0.550781 -3.34375 0.464844 -3.40625 C 0.378906 -3.464844 0.261719 -3.492188 0.105469 -3.492188 L 0.105469 -3.746094 L 1.734375 -3.746094 L 1.734375 -3.492188 C 1.65625 -3.492188 1.574219 -3.488281 1.496094 -3.480469 C 1.417969 -3.46875 1.378906 -3.445312 1.378906 -3.410156 C 1.378906 -3.386719 1.386719 -3.363281 1.402344 -3.335938 C 1.417969 -3.304688 1.4375 -3.277344 1.460938 -3.242188 C 1.515625 -3.15625 1.601562 -3.023438 1.71875 -2.84375 C 1.835938 -2.664062 1.964844 -2.476562 2.101562 -2.273438 C 2.1875 -2.394531 2.292969 -2.539062 2.410156 -2.699219 C 2.527344 -2.863281 2.636719 -3.015625 2.734375 -3.164062 C 2.746094 -3.179688 2.753906 -3.203125 2.765625 -3.230469 C 2.777344 -3.257812 2.78125 -3.28125 2.78125 -3.308594 C 2.78125 -3.359375 2.738281 -3.402344 2.648438 -3.433594 C 2.5625 -3.464844 2.480469 -3.488281 2.398438 -3.5 L 2.398438 -3.746094 L 3.78125 -3.746094 L 3.78125 -3.507812 C 3.585938 -3.457031 3.433594 -3.398438 3.328125 -3.328125 C 3.21875 -3.257812 3.125 -3.179688 3.050781 -3.085938 C 2.964844 -2.984375 2.867188 -2.855469 2.75 -2.703125 C 2.636719 -2.550781 2.476562 -2.339844 2.269531 -2.066406 C 2.496094 -1.742188 2.683594 -1.476562 2.828125 -1.269531 C 2.972656 -1.0625 3.117188 -0.847656 3.265625 -0.625 C 3.339844 -0.515625 3.421875 -0.425781 3.511719 -0.363281 C 3.601562 -0.296875 3.722656 -0.261719 3.882812 -0.25 Z "/>
</g>
</g>
</defs>
<g fill="rgb(100%, 100%, 100%)" fill-opacity="1">
<use xlink:href="#glyph-0-0" x="30" y="27.131836"/>
<use xlink:href="#glyph-0-1" x="34" y="27.131836"/>
<use xlink:href="#glyph-0-2" x="38" y="27.131836"/>
<use xlink:href="#glyph-0-3" x="40" y="27.131836"/>
<use xlink:href="#glyph-0-2" x="45" y="27.131836"/>
<use xlink:href="#glyph-0-4" x="47" y="27.131836"/>
<use xlink:href="#glyph-0-1" x="52" y="27.131836"/>
<use xlink:href="#glyph-0-2" x="56" y="27.131836"/>
<use xlink:href="#glyph-0-5" x="58" y="27.131836"/>
<use xlink:href="#glyph-0-2" x="63" y="27.131836"/>
<use xlink:href="#glyph-0-6" x="65" y="27.131836"/>
<use xlink:href="#glyph-0-1" x="69" y="27.131836"/>
</g>
</svg>
