<?xml version="1.0" encoding="UTF-8"?>
<svg xmlns="http://www.w3.org/2000/svg" xmlns:xlink="http://www.w3.org/1999/xlink" width="854" height="480" viewBox="0 0 854 480">
<defs>
<g>
<g id="glyph-0-0">
<path d="M 2.472656 1.15625 C 1.832031 1.078125 1.328125 0.753906 0.960938 0.1875 C 0.59375 -0.378906 0.414062 -1.144531 0.414062 -2.101562 C 0.414062 -3.078125 0.59375 -3.851562 0.960938 -4.421875 C 1.328125 -4.992188 1.832031 -5.316406 2.472656 -5.402344 L 2.472656 -5.109375 C 2.019531 -5.027344 1.675781 -4.738281 1.441406 -4.246094 C 1.207031 -3.753906 1.089844 -3.035156 1.089844 -2.09375 C 1.089844 -1.199219 1.203125 -0.503906 1.433594 -0.00390625 C 1.664062 0.492188 2.011719 0.78125 2.472656 0.867188 Z "/>
</g>
<g id="glyph-0-1">
<path d="M 2.53125 0 L 0.277344 0 L 0.277344 -0.25 C 0.34375 -0.253906 0.433594 -0.261719 0.554688 -0.273438 C 0.671875 -0.28125 0.757812 -0.296875 0.808594 -0.3125 C 0.886719 -0.34375 0.941406 -0.386719 0.976562 -0.4375 C 1.011719 -0.492188 1.03125 -0.566406 1.03125 -0.660156 L 1.03125 -4.285156 C 1.03125 -4.367188 1.015625 -4.4375 0.992188 -4.492188 C 0.964844 -4.546875 0.902344 -4.59375 0.808594 -4.628906 C 0.738281 -4.660156 0.648438 -4.683594 0.542969 -4.710938 C 0.433594 -4.734375 0.347656 -4.75 0.277344 -4.753906 L 0.277344 -5.003906 L 2.53125 -5.003906 L 2.53125 -4.753906 C 2.460938 -4.75 2.371094 -4.742188 2.269531 -4.726562 C 2.171875 -4.710938 2.082031 -4.691406 2.007812 -4.667969 C 1.917969 -4.640625 1.855469 -4.59375 1.828125 -4.53125 C 1.796875 -4.46875 1.78125 -4.398438 1.78125 -4.320312 L 1.78125 -0.699219 C 1.78125 -0.621094 1.796875 -0.550781 1.832031 -0.492188 C 1.867188 -0.433594 1.925781 -0.382812 2.007812 -0.347656 C 2.054688 -0.332031 2.136719 -0.308594 2.25 -0.289062 C 2.359375 -0.265625 2.453125 -0.253906 2.53125 -0.25 Z "/>
</g>
<g id="glyph-0-2">
<path d="M 2.296875 -2.101562 C 2.296875 -1.144531 2.113281 -0.378906 1.746094 0.1875 C 1.382812 0.753906 0.878906 1.078125 0.234375 1.15625 L 0.234375 0.867188 C 0.695312 0.78125 1.042969 0.492188 1.273438 -0.00390625 C 1.503906 -0.503906 1.617188 -1.199219 1.617188 -2.09375 C 1.617188 -3.035156 1.5 -3.753906 1.265625 -4.246094 C 1.03125 -4.738281 0.6875 -5.027344 0.234375 -5.109375 L 0.234375 -5.402344 C 0.878906 -5.316406 1.382812 -4.992188 1.746094 -4.421875 C 2.113281 -3.851562 2.296875 -3.078125 2.296875 -2.101562 Z "/>
</g>
<g id="glyph-0-3">
</g>
<g id="glyph-0-4">
<path d="M 3.785156 -1.742188 C 3.785156 -1.21875 3.621094 -0.78125 3.289062 -0.425781 C 2.960938 -0.0703125 2.578125 0.105469 2.144531 0.105469 C 1.953125 0.105469 1.765625 0.078125 1.582031 0.0195312 C 1.398438 -0.0429688 1.222656 -0.121094 1.0625 -0.21875 L 0.800781 0.1875 L 0.582031 0.136719 C 0.59375 -0.0351562 0.601562 -0.246094 0.605469 -0.492188 C 0.609375 -0.734375 0.613281 -0.972656 0.613281 -1.199219 L 0.613281 -4.644531 C 0.613281 -4.722656 0.59375 -4.804688 0.558594 -4.882812 C 0.523438 -4.964844 0.476562 -5.023438 0.417969 -5.058594 C 0.375 -5.085938 0.300781 -5.109375 0.195312 -5.125 C 0.0898438 -5.140625 0.0078125 -5.152344 -0.0546875 -5.15625 L -0.0546875 -5.382812 L 1.21875 -5.460938 L 1.269531 -5.40625 L 1.269531 -3.113281 L 1.292969 -3.105469 C 1.441406 -3.261719 1.597656 -3.378906 1.773438 -3.457031 C 1.945312 -3.535156 2.113281 -3.574219 2.28125 -3.574219 C 2.710938 -3.574219 3.066406 -3.402344 3.355469 -3.066406 C 3.640625 -2.726562 3.785156 -2.285156 3.785156 -1.742188 M 3.046875 -1.71875 C 3.046875 -1.890625 3.027344 -2.070312 2.992188 -2.25 C 2.953125 -2.429688 2.894531 -2.589844 2.8125 -2.722656 C 2.734375 -2.859375 2.628906 -2.96875 2.5 -3.054688 C 2.371094 -3.140625 2.214844 -3.179688 2.035156 -3.179688 C 1.871094 -3.179688 1.726562 -3.148438 1.601562 -3.085938 C 1.480469 -3.019531 1.367188 -2.933594 1.269531 -2.820312 L 1.269531 -0.796875 C 1.285156 -0.742188 1.3125 -0.675781 1.351562 -0.597656 C 1.394531 -0.523438 1.449219 -0.453125 1.519531 -0.382812 C 1.589844 -0.320312 1.671875 -0.265625 1.761719 -0.222656 C 1.847656 -0.183594 1.957031 -0.164062 2.085938 -0.164062 C 2.375 -0.164062 2.605469 -0.300781 2.78125 -0.578125 C 2.957031 -0.855469 3.046875 -1.234375 3.046875 -1.71875 Z "/>
</g>
<g id="glyph-0-5">
<path d="M 3.175781 -1.726562 L 0.519531 -1.726562 L 0.519531 -2.121094 C 0.609375 -2.273438 0.75 -2.421875 0.9375 -2.570312 C 1.125 -2.71875 1.351562 -2.875 1.617188 -3.042969 C 1.699219 -3.09375 1.792969 -3.164062 1.890625 -3.25 C 1.992188 -3.335938 2.070312 -3.414062 2.125 -3.488281 C 2.195312 -3.582031 2.246094 -3.679688 2.285156 -3.78125 C 2.320312 -3.882812 2.339844 -4.011719 2.339844 -4.167969 C 2.339844 -4.394531 2.28125 -4.566406 2.164062 -4.683594 C 2.050781 -4.800781 1.898438 -4.859375 1.710938 -4.859375 C 1.578125 -4.859375 1.460938 -4.835938 1.367188 -4.789062 C 1.269531 -4.746094 1.203125 -4.691406 1.160156 -4.628906 C 1.175781 -4.574219 1.191406 -4.511719 1.207031 -4.4375 C 1.226562 -4.367188 1.234375 -4.292969 1.234375 -4.214844 C 1.234375 -4.140625 1.203125 -4.078125 1.136719 -4.023438 C 1.074219 -3.96875 0.976562 -3.941406 0.851562 -3.941406 C 0.742188 -3.941406 0.660156 -3.980469 0.613281 -4.054688 C 0.5625 -4.128906 0.539062 -4.210938 0.539062 -4.300781 C 0.539062 -4.515625 0.664062 -4.707031 0.90625 -4.875 C 1.152344 -5.039062 1.4375 -5.125 1.761719 -5.125 C 2.132812 -5.125 2.433594 -5.035156 2.667969 -4.859375 C 2.898438 -4.679688 3.015625 -4.441406 3.015625 -4.144531 C 3.015625 -3.96875 2.988281 -3.8125 2.9375 -3.683594 C 2.882812 -3.554688 2.8125 -3.441406 2.726562 -3.351562 C 2.632812 -3.253906 2.53125 -3.171875 2.417969 -3.101562 C 2.304688 -3.03125 2.183594 -2.964844 2.0625 -2.90625 C 1.914062 -2.832031 1.730469 -2.734375 1.515625 -2.613281 C 1.300781 -2.492188 1.121094 -2.363281 0.984375 -2.234375 L 3.175781 -2.234375 Z "/>
</g>
<g id="glyph-0-6">
<path d="M 4.101562 -2.410156 L 0.542969 -2.410156 L 0.542969 -2.847656 L 4.101562 -2.847656 L 4.101562 -2.410156 M 4.101562 -1.097656 L 0.542969 -1.097656 L 0.542969 -1.539062 L 4.101562 -1.539062 Z "/>
</g>
<g id="glyph-0-7">
<path d="M 4.039062 0 L 2.328125 0 L 2.328125 -0.234375 C 2.382812 -0.238281 2.441406 -0.242188 2.507812 -0.246094 C 2.574219 -0.25 2.628906 -0.261719 2.667969 -0.273438 C 2.734375 -0.296875 2.785156 -0.332031 2.816406 -0.386719 C 2.847656 -0.4375 2.863281 -0.507812 2.863281 -0.59375 L 2.863281 -2.378906 C 2.863281 -2.628906 2.804688 -2.816406 2.6875 -2.953125 C 2.570312 -3.085938 2.429688 -3.152344 2.261719 -3.152344 C 2.140625 -3.152344 2.027344 -3.132812 1.921875 -3.09375 C 1.816406 -3.054688 1.722656 -3.007812 1.640625 -2.953125 C 1.558594 -2.894531 1.5 -2.835938 1.457031 -2.777344 C 1.414062 -2.714844 1.382812 -2.667969 1.359375 -2.628906 L 1.359375 -0.628906 C 1.359375 -0.546875 1.375 -0.480469 1.40625 -0.429688 C 1.4375 -0.378906 1.484375 -0.339844 1.550781 -0.308594 C 1.601562 -0.285156 1.65625 -0.269531 1.710938 -0.257812 C 1.765625 -0.246094 1.828125 -0.238281 1.894531 -0.234375 L 1.894531 0 L 0.191406 0 L 0.191406 -0.234375 C 0.246094 -0.238281 0.300781 -0.242188 0.359375 -0.25 C 0.417969 -0.253906 0.464844 -0.261719 0.503906 -0.273438 C 0.570312 -0.296875 0.621094 -0.332031 0.652344 -0.386719 C 0.683594 -0.4375 0.703125 -0.507812 0.703125 -0.59375 L 0.703125 -4.644531 C 0.703125 -4.722656 0.683594 -4.804688 0.648438 -4.882812 C 0.609375 -4.964844 0.5625 -5.023438 0.503906 -5.0625 C 0.460938 -5.09375 0.386719 -5.117188 0.28125 -5.128906 C 0.171875 -5.140625 0.0859375 -5.152344 0.0195312 -5.15625 L 0.0195312 -5.382812 L 1.308594 -5.460938 L 1.359375 -5.40625 L 1.359375 -2.980469 L 1.371094 -2.980469 C 1.449219 -3.058594 1.519531 -3.125 1.582031 -3.1875 C 1.648438 -3.246094 1.730469 -3.308594 1.835938 -3.375 C 1.925781 -3.429688 2.03125 -3.476562 2.152344 -3.515625 C 2.273438 -3.554688 2.40625 -3.574219 2.558594 -3.574219 C 2.871094 -3.574219 3.109375 -3.472656 3.277344 -3.277344 C 3.441406 -3.082031 3.527344 -2.800781 3.527344 -2.429688 L 3.527344 -0.621094 C 3.527344 -0.539062 3.542969 -0.472656 3.570312 -0.421875 C 3.601562 -0.371094 3.648438 -0.332031 3.71875 -0.304688 C 3.773438 -0.28125 3.820312 -0.265625 3.867188 -0.253906 C 3.910156 -0.246094 3.96875 -0.238281 4.039062 -0.234375 Z "/>
</g>
<g id="glyph-0-8">
<path d="M 4.136719 -1.753906 L 2.546875 -1.753906 L 2.546875 -0.164062 L 2.097656 -0.164062 L 2.097656 -1.753906 L 0.507812 -1.753906 L 0.507812 -2.195312 L 2.097656 -2.195312 L 2.097656 -3.785156 L 2.546875 -3.785156 L 2.546875 -2.195312 L 4.136719 -2.195312 Z "/>
</g>
<g id="glyph-0-9">
<path d="M 3.546875 -0.0625 C 3.4375 -0.0234375 3.339844 0.0078125 3.257812 0.0351562 C 3.171875 0.0585938 3.078125 0.0703125 2.972656 0.0703125 C 2.789062 0.0703125 2.644531 0.0273438 2.535156 -0.0585938 C 2.425781 -0.144531 2.355469 -0.269531 2.324219 -0.433594 L 2.304688 -0.433594 C 2.148438 -0.265625 1.984375 -0.136719 1.8125 -0.046875 C 1.636719 0.0429688 1.425781 0.0898438 1.179688 0.0898438 C 0.917969 0.0898438 0.703125 0.0078125 0.535156 -0.152344 C 0.367188 -0.3125 0.28125 -0.519531 0.28125 -0.78125 C 0.28125 -0.914062 0.300781 -1.035156 0.339844 -1.140625 C 0.375 -1.246094 0.433594 -1.339844 0.507812 -1.425781 C 0.566406 -1.496094 0.644531 -1.558594 0.742188 -1.613281 C 0.835938 -1.667969 0.925781 -1.710938 1.011719 -1.746094 C 1.117188 -1.785156 1.332031 -1.859375 1.65625 -1.96875 C 1.980469 -2.074219 2.195312 -2.160156 2.308594 -2.222656 L 2.308594 -2.570312 C 2.308594 -2.601562 2.304688 -2.660156 2.289062 -2.746094 C 2.277344 -2.835938 2.25 -2.917969 2.207031 -2.996094 C 2.160156 -3.082031 2.09375 -3.15625 2.007812 -3.222656 C 1.921875 -3.285156 1.800781 -3.320312 1.644531 -3.320312 C 1.535156 -3.320312 1.433594 -3.300781 1.34375 -3.265625 C 1.25 -3.226562 1.183594 -3.1875 1.144531 -3.148438 C 1.144531 -3.101562 1.15625 -3.03125 1.179688 -2.941406 C 1.203125 -2.847656 1.214844 -2.765625 1.214844 -2.6875 C 1.214844 -2.605469 1.175781 -2.53125 1.101562 -2.460938 C 1.027344 -2.394531 0.925781 -2.359375 0.792969 -2.359375 C 0.675781 -2.359375 0.589844 -2.402344 0.535156 -2.484375 C 0.480469 -2.566406 0.453125 -2.660156 0.453125 -2.765625 C 0.453125 -2.875 0.488281 -2.976562 0.566406 -3.074219 C 0.640625 -3.175781 0.742188 -3.261719 0.863281 -3.339844 C 0.96875 -3.40625 1.097656 -3.460938 1.25 -3.507812 C 1.398438 -3.554688 1.546875 -3.574219 1.6875 -3.574219 C 1.886719 -3.574219 2.058594 -3.5625 2.207031 -3.535156 C 2.351562 -3.507812 2.484375 -3.449219 2.605469 -3.359375 C 2.726562 -3.273438 2.816406 -3.15625 2.878906 -3.007812 C 2.941406 -2.855469 2.972656 -2.664062 2.972656 -2.429688 C 2.972656 -2.09375 2.96875 -1.796875 2.960938 -1.535156 C 2.957031 -1.277344 2.953125 -0.992188 2.953125 -0.683594 C 2.953125 -0.59375 2.96875 -0.519531 3 -0.464844 C 3.03125 -0.410156 3.078125 -0.367188 3.144531 -0.328125 C 3.179688 -0.308594 3.238281 -0.296875 3.3125 -0.292969 C 3.390625 -0.289062 3.46875 -0.289062 3.546875 -0.289062 L 3.546875 -0.0625 M 2.316406 -1.925781 C 2.117188 -1.867188 1.941406 -1.808594 1.792969 -1.753906 C 1.640625 -1.695312 1.5 -1.625 1.371094 -1.539062 C 1.253906 -1.460938 1.160156 -1.367188 1.09375 -1.253906 C 1.023438 -1.144531 0.992188 -1.015625 0.992188 -0.867188 C 0.992188 -0.667969 1.042969 -0.527344 1.144531 -0.433594 C 1.246094 -0.34375 1.375 -0.296875 1.535156 -0.296875 C 1.699219 -0.296875 1.847656 -0.335938 1.976562 -0.417969 C 2.101562 -0.5 2.207031 -0.59375 2.296875 -0.707031 Z "/>
</g>
<g id="glyph-0-10">
<path d="M 2.402344 -1.636719 L 0.300781 -1.636719 L 0.300781 -2.195312 L 2.402344 -2.195312 Z "/>
</g>
<g id="glyph-0-11">
<path d="M 3.605469 0 L 2.011719 0 L 2.011719 -0.234375 C 2.117188 -0.246094 2.207031 -0.257812 2.28125 -0.269531 C 2.355469 -0.28125 2.390625 -0.308594 2.390625 -0.359375 C 2.390625 -0.382812 2.378906 -0.414062 2.355469 -0.457031 C 2.332031 -0.503906 2.308594 -0.542969 2.285156 -0.582031 C 2.226562 -0.671875 2.148438 -0.796875 2.042969 -0.949219 C 1.941406 -1.105469 1.816406 -1.289062 1.667969 -1.503906 C 1.546875 -1.351562 1.433594 -1.203125 1.328125 -1.054688 C 1.226562 -0.910156 1.117188 -0.757812 1.003906 -0.597656 C 0.988281 -0.574219 0.96875 -0.542969 0.953125 -0.507812 C 0.933594 -0.472656 0.925781 -0.445312 0.925781 -0.421875 C 0.925781 -0.371094 0.960938 -0.328125 1.027344 -0.292969 C 1.09375 -0.261719 1.195312 -0.238281 1.328125 -0.226562 L 1.328125 0 L 0.0429688 0 L 0.0429688 -0.21875 C 0.203125 -0.265625 0.332031 -0.324219 0.429688 -0.390625 C 0.527344 -0.457031 0.617188 -0.539062 0.699219 -0.636719 C 0.769531 -0.734375 0.871094 -0.863281 1.003906 -1.027344 C 1.132812 -1.191406 1.304688 -1.417969 1.511719 -1.699219 C 1.390625 -1.871094 1.242188 -2.082031 1.070312 -2.328125 C 0.898438 -2.574219 0.753906 -2.78125 0.644531 -2.945312 C 0.582031 -3.035156 0.511719 -3.105469 0.433594 -3.160156 C 0.355469 -3.21875 0.242188 -3.246094 0.0976562 -3.246094 L 0.0976562 -3.476562 L 1.613281 -3.476562 L 1.613281 -3.246094 C 1.535156 -3.246094 1.460938 -3.238281 1.390625 -3.230469 C 1.316406 -3.222656 1.28125 -3.199219 1.28125 -3.167969 C 1.28125 -3.144531 1.289062 -3.121094 1.300781 -3.097656 C 1.316406 -3.070312 1.332031 -3.042969 1.355469 -3.011719 C 1.40625 -2.933594 1.488281 -2.808594 1.597656 -2.640625 C 1.707031 -2.476562 1.824219 -2.296875 1.949219 -2.113281 C 2.03125 -2.226562 2.128906 -2.355469 2.238281 -2.507812 C 2.347656 -2.65625 2.449219 -2.800781 2.539062 -2.9375 C 2.550781 -2.953125 2.558594 -2.976562 2.570312 -3 C 2.578125 -3.023438 2.582031 -3.046875 2.582031 -3.070312 C 2.582031 -3.121094 2.542969 -3.160156 2.460938 -3.191406 C 2.378906 -3.21875 2.300781 -3.238281 2.230469 -3.25 L 2.230469 -3.476562 L 3.511719 -3.476562 L 3.511719 -3.257812 C 3.332031 -3.210938 3.191406 -3.15625 3.089844 -3.089844 C 2.988281 -3.027344 2.902344 -2.953125 2.832031 -2.867188 C 2.753906 -2.769531 2.664062 -2.652344 2.554688 -2.511719 C 2.449219 -2.371094 2.296875 -2.171875 2.105469 -1.917969 C 2.320312 -1.617188 2.492188 -1.371094 2.628906 -1.179688 C 2.761719 -0.984375 2.898438 -0.785156 3.03125 -0.582031 C 3.101562 -0.476562 3.175781 -0.398438 3.261719 -0.335938 C 3.34375 -0.277344 3.457031 -0.242188 3.605469 -0.234375 Z "/>
</g>
</g>
</defs>
<g fill="rgb(100%, 100%, 100%)" fill-opacity="1">
<use xlink:href="#glyph-0-0" x="30" y="26.623047"/>
<use xlink:href="#glyph-0-1" x="33" y="26.623047"/>
<use xlink:href="#glyph-0-1" x="36" y="26.623047"/>
<use xlink:href="#glyph-0-2" x="39" y="26.623047"/>
<use xlink:href="#glyph-0-3" x="42" y="26.623047"/>
<use xlink:href="#glyph-0-3" x="44" y="26.623047"/>
<use xlink:href="#glyph-0-4" x="46" y="26.623047"/>
<use xlink:href="#glyph-0-5" x="50" y="26.623047"/>
<use xlink:href="#glyph-0-3" x="54" y="26.623047"/>
<use xlink:href="#glyph-0-6" x="56" y="26.623047"/>
<use xlink:href="#glyph-0-3" x="61" y="26.623047"/>
<use xlink:href="#glyph-0-7" x="63" y="26.623047"/>
<use xlink:href="#glyph-0-5" x="67" y="26.623047"/>
<use xlink:href="#glyph-0-3" x="71" y="26.623047"/>
<use xlink:href="#glyph-0-8" x="73" y="26.623047"/>
<use xlink:href="#glyph-0-3" x="78" y="26.623047"/>
<use xlink:href="#glyph-0-0" x="80" y="26.623047"/>
<use xlink:href="#glyph-0-9" x="83" y="26.623047"/>
<use xlink:href="#glyph-0-3" x="87" y="26.623047"/>
<use xlink:href="#glyph-0-10" x="89" y="26.623047"/>
<use xlink:href="#glyph-0-3" x="92" y="26.623047"/>
<use xlink:href="#glyph-0-11" x="94" y="26.623047"/>
<use xlink:href="#glyph-0-2" x="98" y="26.623047"/>
<use xlink:href="#glyph-0-5" x="101" y="26.623047"/>
</g>
</svg>
